<svg xmlns="http://www.w3.org/2000/svg" width="400" height="600" viewBox="0 0 400 600">
  <!-- Background -->
  <rect width="400" height="600" fill="#e0e0e0"/>

  <!-- Film strip elements -->
  <rect x="20" y="40" width="360" height="40" fill="#bdbdbd"/>
  <rect x="40" y="40" width="20" height="40" fill="#e0e0e0"/>
  <rect x="100" y="40" width="20" height="40" fill="#e0e0e0"/>
  <rect x="160" y="40" width="20" height="40" fill="#e0e0e0"/>
  <rect x="220" y="40" width="20" height="40" fill="#e0e0e0"/>
  <rect x="280" y="40" width="20" height="40" fill="#e0e0e0"/>
  <rect x="340" y="40" width="20" height="40" fill="#e0e0e0"/>

  <rect x="20" y="520" width="360" height="40" fill="#bdbdbd"/>
  <rect x="40" y="520" width="20" height="40" fill="#e0e0e0"/>
  <rect x="100" y="520" width="20" height="40" fill="#e0e0e0"/>
  <rect x="160" y="520" width="20" height="40" fill="#e0e0e0"/>
  <rect x="220" y="520" width="20" height="40" fill="#e0e0e0"/>
  <rect x="280" y="520" width="20" height="40" fill="#e0e0e0"/>
  <rect x="340" y="520" width="20" height="40" fill="#e0e0e0"/>

  <!-- Movie elements -->
  <circle cx="200" cy="200" r="60" fill="#bdbdbd"/>
  <rect x="150" y="290" width="100" height="120" rx="10" fill="#bdbdbd"/>

  <!-- Text -->
  <text x="200" y="400" font-family="Arial, sans-serif" font-size="24" text-anchor="middle" fill="#757575">
    No Image
  </text>
  <text x="200" y="430" font-family="Arial, sans-serif" font-size="16" text-anchor="middle" fill="#757575">
    Available
  </text>
</svg>
